<svg viewBox="0 0 60 60" xmlns="http://www.w3.org/2000/svg" xmlns:xlink="http://www.w3.org/1999/xlink" width="60.000000" height="60.000000" fill="none" customFrame="#000000">
	<rect id="Documents &amp; Safety/copy" width="60.000000" height="60.000000" x="0.000000" y="0.000000" />
	<path id="Icon" d="M32 15C34.8003 15 36.2004 15 37.27 15.545C38.2108 16.0243 38.9757 16.7892 39.455 17.73C40 18.7996 40 20.1997 40 23L40 47C40 49.8003 40 51.2004 39.455 52.27C38.9757 53.2108 38.2108 53.9757 37.27 54.455C36.2004 55 34.8003 55 32 55L18 55C15.1997 55 13.7996 55 12.73 54.455C11.7892 53.9757 11.0243 53.2108 10.545 52.27C10 51.2004 10 49.8003 10 47L10 23C10 20.1997 10 18.7996 10.545 17.73C11.0243 16.7892 11.7892 16.0243 12.73 15.545C13.7996 15 15.1997 15 18 15L32 15ZM20 13C20 10.1997 20 8.79961 20.545 7.73005C21.0243 6.78924 21.7892 6.02433 22.73 5.54497C23.7996 5 25.1997 5 28 5L42 5C44.8003 5 46.2004 5 47.27 5.54497C48.2108 6.02433 48.9757 6.78924 49.455 7.73005C50 8.79961 50 10.1997 50 13L50 37C50 39.8003 50 41.2004 49.455 42.27C48.9757 43.2108 48.2108 43.9757 47.27 44.455C46.2004 45 44.8003 45 42 45" stroke="rgb(67.9283,90.4626,190.843)" stroke-width="5" />
</svg>
