<svg viewBox="0 0 83.332 108.575" xmlns="http://www.w3.org/2000/svg" xmlns:xlink="http://www.w3.org/1999/xlink" width="83.332031" height="108.575378" fill="none" customFrame="#000000">
	<g id="Group">
		<path id="Vector" d="M8.38763 23.5759C11.4047 18.0253 15.7623 13.3177 21.0636 9.88142C26.3648 6.44518 32.4414 4.38953 38.7401 3.90164C45.0388 3.41375 51.3594 4.50911 57.1266 7.088C62.8938 9.66688 67.9244 13.6474 71.7602 18.6671C75.5961 23.6868 78.1154 29.5862 79.0889 35.8283C80.0624 42.0704 79.4591 48.4568 77.3338 54.4061C75.2086 60.3555 71.629 65.6787 66.921 69.8913C61.2648 74.9566 58.4367 77.4917 57.6691 78.426C55.2097 81.4612 55.1036 81.7086 54.4875 85.5619C54.2906 86.7588 54.2906 88.5566 54.2906 92.1624C54.2906 96.8843 54.2906 99.2427 53.2755 101C52.6106 102.152 51.6544 103.108 50.5029 103.773C48.7455 104.788 46.3871 104.788 41.6652 104.788C36.9433 104.788 34.5849 104.788 32.8274 103.773C31.6759 103.108 30.7197 102.152 30.0549 101C29.0398 99.2427 29.0398 96.8843 29.0398 92.1624C29.0398 88.5617 29.0398 86.7588 28.8479 85.5619C28.2267 81.7086 28.1207 81.4612 25.6613 78.4311C24.8987 77.4918 22.0656 74.9566 16.4094 69.8862C12.434 66.3378 9.25436 61.9885 7.07928 57.1239C4.90419 52.2593 3.78291 46.9896 3.78909 41.661C3.7897 35.3434 5.37052 29.1264 8.38763 23.5759Z" fill-rule="nonzero" stroke="rgb(255,255,255)" stroke-width="7.57522011" />
		<path id="Vector" d="M54.2898 92.1623L29.0391 92.1623" opacity="0.5" stroke="rgb(255,255,255)" stroke-width="7.57522011" />
		<path id="Vector" d="M41.6726 79.5371L41.6726 69.4368M32.9258 64.3867C33.8122 65.9221 35.0872 67.1971 36.6226 68.0836C38.158 68.97 39.8997 69.4368 41.6726 69.4368C43.4456 69.4368 45.1872 68.97 46.7226 68.0836C48.258 67.1971 49.533 65.9221 50.4195 64.3867" opacity="0.5" fill-rule="nonzero" stroke="rgb(255,255,255)" stroke-linecap="round" stroke-width="7.57522011" />
	</g>
</svg>
