<svg viewBox="0 0 100 100" xmlns="http://www.w3.org/2000/svg" xmlns:xlink="http://www.w3.org/1999/xlink" width="100.000000" height="100.000000" fill="none" customFrame="#000000">
	<rect id="HiLightBulb" width="100.000000" height="100.000000" x="0.000000" y="0.000000" fill="rgb(255,255,255)" fill-opacity="0" />
	<path id="Vector" d="M54.9922 14.9995C54.9922 13.6734 54.4654 12.4017 53.5277 11.464C52.59 10.5263 51.3183 9.99951 49.9922 9.99951C48.6661 9.99951 47.3943 10.5263 46.4567 11.464C45.519 12.4017 44.9922 13.6734 44.9922 14.9995L44.9922 19.9995C44.9922 21.3256 45.519 22.5974 46.4567 23.535C47.3943 24.4727 48.6661 24.9995 49.9922 24.9995C51.3183 24.9995 52.59 24.4727 53.5277 23.535C54.4654 22.5974 54.9922 21.3256 54.9922 19.9995L54.9922 14.9995ZM78.2772 28.7845C79.188 27.8415 79.6919 26.5785 79.6806 25.2675C79.6692 23.9565 79.1433 22.7025 78.2163 21.7754C77.2892 20.8484 76.0352 20.3225 74.7242 20.3111C73.4132 20.2998 72.1502 20.8037 71.2072 21.7145L67.6722 25.2495C66.7614 26.1925 66.2574 27.4555 66.2688 28.7665C66.2802 30.0775 66.8061 31.3316 67.7331 32.2586C68.6601 33.1856 69.9142 33.7115 71.2252 33.7229C72.5362 33.7343 73.7992 33.2303 74.7422 32.3195L78.2772 28.7845ZM89.9922 49.9995C89.9922 51.3256 89.4654 52.5974 88.5277 53.535C87.59 54.4727 86.3183 54.9995 84.9922 54.9995L79.9922 54.9995C78.6661 54.9995 77.3943 54.4727 76.4567 53.535C75.519 52.5974 74.9922 51.3256 74.9922 49.9995C74.9922 48.6734 75.519 47.4017 76.4567 46.464C77.3943 45.5263 78.6661 44.9995 79.9922 44.9995L84.9922 44.9995C86.3183 44.9995 87.59 45.5263 88.5277 46.464C89.4654 47.4017 89.9922 48.6734 89.9922 49.9995ZM25.2422 32.3195C25.7034 32.7971 26.2551 33.178 26.8652 33.44C27.4752 33.7021 28.1313 33.84 28.7952 33.8458C29.4591 33.8515 30.1175 33.725 30.732 33.4736C31.3464 33.2222 31.9047 32.851 32.3742 32.3815C32.8436 31.912 33.2149 31.3538 33.4663 30.7393C33.7177 30.1248 33.8442 29.4664 33.8384 28.8025C33.8327 28.1386 33.6947 27.4825 33.4327 26.8725C33.1706 26.2625 32.7897 25.7107 32.3122 25.2495L28.7772 21.7145C27.8342 20.8037 26.5712 20.2998 25.2602 20.3111C23.9492 20.3225 22.6951 20.8484 21.7681 21.7754C20.8411 22.7025 20.3152 23.9565 20.3038 25.2675C20.2924 26.5785 20.7964 27.8415 21.7072 28.7845L25.2422 32.3195ZM24.9922 49.9995C24.9922 51.3256 24.4654 52.5974 23.5277 53.535C22.59 54.4727 21.3183 54.9995 19.9922 54.9995L14.9922 54.9995C13.6661 54.9995 12.3943 54.4727 11.4567 53.535C10.519 52.5974 9.99219 51.3256 9.99219 49.9995C9.99219 48.6734 10.519 47.4017 11.4567 46.464C12.3943 45.5263 13.6661 44.9995 14.9922 44.9995L19.9922 44.9995C21.3183 44.9995 22.59 45.5263 23.5277 46.464C24.4654 47.4017 24.9922 48.6734 24.9922 49.9995ZM39.9922 79.9995L39.9922 74.9995L59.9922 74.9995L59.9922 79.9995C59.9922 82.6517 58.9386 85.1952 57.0633 87.0706C55.1879 88.9459 52.6444 89.9995 49.9922 89.9995C47.34 89.9995 44.7965 88.9459 42.9211 87.0706C41.0458 85.1952 39.9922 82.6517 39.9922 79.9995ZM59.9922 69.9995C60.0672 68.2995 61.0322 66.7695 62.3772 65.7045C65.6406 63.1308 68.0211 59.6043 69.1879 55.6153C70.3547 51.6263 70.2497 47.3728 68.8877 43.4462C67.5256 39.5195 64.974 36.1147 61.5877 33.7051C58.2013 31.2954 54.1484 30.0006 49.9922 30.0006C45.836 30.0006 41.7831 31.2954 38.3967 33.7051C35.0103 36.1147 32.4588 39.5195 31.0967 43.4462C29.7346 47.3728 29.6297 51.6263 30.7965 55.6153C31.9632 59.6043 34.3438 63.1308 37.6072 65.7045C38.9572 66.7695 39.9172 68.2995 39.9872 69.9995L59.9972 69.9995L59.9922 69.9995Z" fill="rgb(255,255,255)" fill-rule="nonzero" />
	<path id="Vector" d="M53.5277 11.464C52.59 10.5263 51.3183 9.99951 49.9922 9.99951C48.6661 9.99951 47.3943 10.5263 46.4567 11.464C45.519 12.4017 44.9922 13.6734 44.9922 14.9995L44.9922 19.9995C44.9922 21.3256 45.519 22.5974 46.4567 23.535C47.3943 24.4727 48.6661 24.9995 49.9922 24.9995C51.3183 24.9995 52.59 24.4727 53.5277 23.535C54.4654 22.5974 54.9922 21.3256 54.9922 19.9995L54.9922 14.9995C54.9922 13.6734 54.4654 12.4017 53.5277 11.464ZM79.6806 25.2675C79.6692 23.9565 79.1433 22.7025 78.2163 21.7754C77.2892 20.8484 76.0352 20.3225 74.7242 20.3111C73.4132 20.2998 72.1502 20.8037 71.2072 21.7145L67.6722 25.2495C66.7614 26.1925 66.2574 27.4555 66.2688 28.7665C66.2802 30.0775 66.8061 31.3316 67.7331 32.2586C68.6601 33.1856 69.9142 33.7115 71.2252 33.7229C72.5362 33.7343 73.7992 33.2303 74.7422 32.3195L78.2772 28.7845C79.188 27.8415 79.6919 26.5785 79.6806 25.2675ZM88.5277 53.535C87.59 54.4727 86.3183 54.9995 84.9922 54.9995L79.9922 54.9995C78.6661 54.9995 77.3943 54.4727 76.4567 53.535C75.519 52.5974 74.9922 51.3256 74.9922 49.9995C74.9922 48.6734 75.519 47.4017 76.4567 46.464C77.3943 45.5263 78.6661 44.9995 79.9922 44.9995L84.9922 44.9995C86.3183 44.9995 87.59 45.5263 88.5277 46.464C89.4654 47.4017 89.9922 48.6734 89.9922 49.9995C89.9922 51.3256 89.4654 52.5974 88.5277 53.535ZM26.8652 33.44C27.4752 33.7021 28.1313 33.84 28.7952 33.8458C29.4591 33.8515 30.1175 33.725 30.732 33.4736C31.3464 33.2222 31.9047 32.851 32.3742 32.3815C32.8436 31.912 33.2149 31.3538 33.4663 30.7393C33.7177 30.1248 33.8442 29.4664 33.8384 28.8025C33.8327 28.1386 33.6947 27.4825 33.4327 26.8725C33.1706 26.2625 32.7897 25.7107 32.3122 25.2495L28.7772 21.7145C27.8342 20.8037 26.5712 20.2998 25.2602 20.3111C23.9492 20.3225 22.6951 20.8484 21.7681 21.7754C20.8411 22.7025 20.3152 23.9565 20.3038 25.2675C20.2924 26.5785 20.7964 27.8415 21.7072 28.7845L25.2422 32.3195C25.7034 32.7971 26.2551 33.178 26.8652 33.44ZM23.5277 53.535C22.59 54.4727 21.3183 54.9995 19.9922 54.9995L14.9922 54.9995C13.6661 54.9995 12.3943 54.4727 11.4567 53.535C10.519 52.5974 9.99219 51.3256 9.99219 49.9995C9.99219 48.6734 10.519 47.4017 11.4567 46.464C12.3943 45.5263 13.6661 44.9995 14.9922 44.9995L19.9922 44.9995C21.3183 44.9995 22.59 45.5263 23.5277 46.464C24.4654 47.4017 24.9922 48.6734 24.9922 49.9995C24.9922 51.3256 24.4654 52.5974 23.5277 53.535ZM39.9922 74.9995L59.9922 74.9995L59.9922 79.9995C59.9922 82.6517 58.9386 85.1952 57.0633 87.0706C55.1879 88.9459 52.6444 89.9995 49.9922 89.9995C47.34 89.9995 44.7965 88.9459 42.9211 87.0706C41.0458 85.1952 39.9922 82.6517 39.9922 79.9995L39.9922 74.9995ZM62.3772 65.7045C65.6406 63.1308 68.0211 59.6043 69.1879 55.6153C70.3547 51.6263 70.2497 47.3728 68.8877 43.4462C67.5256 39.5195 64.974 36.1147 61.5877 33.7051C58.2013 31.2954 54.1484 30.0006 49.9922 30.0006C45.836 30.0006 41.7831 31.2954 38.3967 33.7051C35.0103 36.1147 32.4588 39.5195 31.0967 43.4462C29.7346 47.3728 29.6297 51.6263 30.7965 55.6153C31.9632 59.6043 34.3438 63.1308 37.6072 65.7045C38.9572 66.7695 39.9172 68.2995 39.9872 69.9995L59.9972 69.9995L59.9922 69.9995C60.0672 68.2995 61.0322 66.7695 62.3772 65.7045Z" fill-rule="nonzero" stroke="rgb(255,255,255)" stroke-width="0" />
</svg>
