<svg viewBox="0 0 113.004 96.9698" xmlns="http://www.w3.org/2000/svg" xmlns:xlink="http://www.w3.org/1999/xlink" width="113.003906" height="96.969849" fill="none" customFrame="#000000">
	<g id="Group 46">
		<path id="Vector" d="M75.7496 8.39226C76.1884 8.69098 76.5641 9.07321 76.8552 9.51712C77.1462 9.96102 77.347 10.4579 77.4461 10.9794C77.5451 11.5009 77.5405 12.0368 77.4324 12.5566C77.3244 13.0763 77.115 13.5696 76.8163 14.0084C76.5176 14.4472 76.1353 14.8229 75.6914 15.114C75.2475 15.4051 74.7506 15.6059 74.2291 15.7049C73.7076 15.8039 73.1717 15.7993 72.652 15.6913C72.1323 15.5832 71.6389 15.3738 71.2001 15.0751C63.7394 10.0033 54.796 7.57421 45.7946 8.17491C36.7932 8.77561 28.2518 12.3715 21.5312 18.3897C14.8106 24.4079 10.2974 32.5022 8.71073 41.3829C7.12403 50.2637 8.55508 59.42 12.7759 67.3931C16.9967 75.3662 23.7645 81.6973 32.0009 85.3779C40.2374 89.0584 49.4686 89.8766 58.224 87.702C66.9794 85.5275 74.7552 80.4854 80.3125 73.3789C85.8699 66.2725 88.889 57.5106 88.889 48.4893C88.889 47.4177 89.3147 46.39 90.0724 45.6323C90.8301 44.8745 91.8578 44.4488 92.9294 44.4488C94.001 44.4488 95.0287 44.8745 95.7864 45.6323C96.5441 46.39 96.9698 47.4177 96.9698 48.4893C96.9689 59.3151 93.3448 69.8291 86.6751 78.3563C80.0053 86.8835 70.6736 92.9331 60.1667 95.5415C49.6599 98.1498 38.5823 97.1667 28.6989 92.7489C18.8156 88.331 10.6951 80.7325 5.63124 71.164C0.567392 61.5956 -1.14847 50.6076 0.75704 39.9508C2.66255 29.2941 8.07979 19.5816 16.1457 12.3608C24.2115 5.13999 34.462 0.826359 45.2639 0.107154C56.0658 -0.61205 66.7976 2.30455 75.7496 8.39226Z" fill="rgb(255,255,255)" fill-rule="nonzero" />
		<path id="Vector" d="M70.8462 61.2977C70.3995 61.5981 69.8973 61.8062 69.3691 61.9099C68.8408 62.0135 68.2972 62.0106 67.7701 61.9012C67.2431 61.7918 66.7431 61.5782 66.2998 61.2729C65.8564 60.9676 65.4785 60.5768 65.1883 60.1234C64.8981 59.67 64.7014 59.1632 64.6097 58.6328C64.5181 58.1023 64.5334 57.5589 64.6547 57.0344C64.7761 56.51 65.001 56.0151 65.3162 55.5787C65.6315 55.1424 66.0308 54.7735 66.4906 54.4936L94.628 36.4976C95.0747 36.1972 95.5769 35.989 96.1051 35.8854C96.6334 35.7818 97.177 35.7847 97.7041 35.8941C98.2312 36.0035 98.7311 36.2171 99.1744 36.5224C99.6178 36.8277 99.9957 37.2185 100.286 37.6719C100.576 38.1253 100.773 38.6321 100.864 39.1625C100.956 39.693 100.941 40.2364 100.819 40.7608C100.698 41.2853 100.473 41.7802 100.158 42.2166C99.8427 42.6529 99.4434 43.0218 98.9836 43.3017L70.8462 61.2977Z" fill="rgb(255,255,255)" fill-rule="nonzero" />
		<path id="Vector" d="M112.696 65.5721C113.098 66.5446 113.104 67.6353 112.714 68.6122C112.323 69.5892 111.567 70.3754 110.607 70.8037C109.646 71.2321 108.556 71.2687 107.568 70.9059C106.581 70.5432 105.774 69.8095 105.319 68.861L93.1247 41.5479C92.9082 41.0629 92.7893 40.5401 92.7749 40.0092C92.7605 39.4783 92.8508 38.9497 93.0406 38.4537C93.2305 37.9578 93.5162 37.504 93.8814 37.1184C94.2466 36.7328 94.6842 36.4229 95.1691 36.2065C95.6541 35.99 96.1769 35.8711 96.7078 35.8567C97.2387 35.8423 97.7672 35.9326 98.2632 36.1224C99.265 36.5058 100.073 37.2715 100.511 38.2509L112.696 65.5721Z" fill="rgb(255,255,255)" fill-rule="nonzero" />
	</g>
</svg>
